<svg xmlns="http://www.w3.org/2000/svg" viewBox="0 0 246.26 192"><defs><style>.cls-1{fill:#fff;}</style></defs><g id="Layer_2" data-name="Layer 2"><g id="Layer_1-2" data-name="Layer 1"><path class="cls-1" d="M77.57,65.4a10.41,10.41,0,1,0-14.12-4.19A10.42,10.42,0,0,0,77.57,65.4Z"/><path class="cls-1" d="M79.57,145.4a10.41,10.41,0,1,0-14.12-4.19A10.42,10.42,0,0,0,79.57,145.4Z"/><path class="cls-1" d="M115.26,87.44c17.16-8.32,26-20.65,26-40C141.27,11.8,116.6,0,80.12,0H28.81A28.81,28.81,0,0,0,0,28.81V162.7a28.81,28.81,0,0,0,28.81,28.81h54c34.59,0,67.58-16.63,67.58-55.52C150.39,112.12,138.86,94.14,115.26,87.44ZM94.65,162.15a33.09,33.09,0,0,1-44.9-47.91,32.1,32.1,0,0,1,9.47-8,11.18,11.18,0,0,0-.59-20A32.91,32.91,0,0,1,42.14,69.33a33.15,33.15,0,1,1,56,7.94,32.1,32.1,0,0,1-9.47,8,11.18,11.18,0,0,0,.59,20,32.91,32.91,0,0,1,16.49,16.94A33.36,33.36,0,0,1,94.65,162.15Z"/><path class="cls-1" d="M156.3,149h12.28l9.94,19,9.75-19h12.46v43h-8.85V161.6h-.12l-9.57,19.56H174.9l-9.51-19.26h-.12V192h-9Z"/><path class="cls-1" d="M220.43,169.48,206.58,149h11L226,162.74,234.7,149h10.35l-13.78,20.53,15,22.46H235l-9-14.75L216,192H205.38Z"/></g></g></svg>