<svg xmlns="http://www.w3.org/2000/svg" viewBox="0 0 971 86"><defs><style>.cls-1{fill:#010101;}</style></defs><g id="Layer_2" data-name="Layer 2"><g id="Layer_1-2" data-name="Layer 1"><path class="cls-1" d="M928,86a43,43,0,0,1-41.13-30.42A15,15,0,0,0,872.55,45H688.45a15,15,0,0,0-14.32,10.58,43,43,0,0,1-82.26,0A15,15,0,0,0,577.55,45H393.45a15,15,0,0,0-14.32,10.58,43,43,0,0,1-82.26,0A15,15,0,0,0,282.55,45H98.45A15,15,0,0,0,84.13,55.58,43,43,0,1,1,84.28,31,15.34,15.34,0,0,0,99,42H281.65a15.91,15.91,0,0,0,15.19-11.44,43,43,0,0,1,82.32,0A15.91,15.91,0,0,0,394.35,42h182.3a15.91,15.91,0,0,0,15.19-11.44,43,43,0,0,1,82.32,0A15.91,15.91,0,0,0,689.35,42H872a15.34,15.34,0,0,0,14.74-11A43,43,0,1,1,928,86Z"/></g></g></svg>