<svg xmlns="http://www.w3.org/2000/svg" viewBox="0 0 302.36 227.02"><defs><style>.cls-1{fill:#fff;}.cls-2{fill:#55c9f8;}</style></defs><g id="Layer_2" data-name="Layer 2"><g id="Layer_1-2" data-name="Layer 1"><path class="cls-1" d="M170.94,29.05A44.82,44.82,0,0,0,129,0h0A44.82,44.82,0,0,0,87,29.05L28.74,184.16h58.1l12.73-30.4h57.09l13,30.4h59.59Zm-42.38,88.16c-18.77,0-34-21.41-34-47.82s15.22-47.81,34-47.81,34,21.41,34,47.81S147.34,117.21,128.56,117.21Z"/><path class="cls-1" d="M7.43,178v6.51H0V149.47H25.48v6.46h-18v7.87H23.37v6.8H7.43Z"/><path class="cls-1" d="M252.56,184.65a17.59,17.59,0,1,1,15.25-26.19c-3,1.56-3.21,1.7-6.51,3.31a10.09,10.09,0,0,0-8.74-5,10.3,10.3,0,0,0,0,20.6,10.12,10.12,0,0,0,9-5.39c3.31,1.7,3.41,1.89,6.51,3.3A17.43,17.43,0,0,1,252.56,184.65Z"/><path class="cls-1" d="M280.78,170.71v7.38h19.58v6.41h-27V149.72h25.31v6.41H280.78V164h15.84v6.76Z"/><path class="cls-1" d="M170.74,195.63h8.76l7.09,13.52,7-13.52h8.89v30.66h-6.32V204.6H196l-6.83,14H184l-6.78-13.74h-.09v21.47h-6.4Z"/><path class="cls-1" d="M207.33,226.29l13.91-30.62H228l13.7,30.62H235.2l-3-6.78h-15.5l-3.22,6.78Zm17.39-24.87-5.15,11.86h10.17l-5-11.86Z"/><path class="cls-1" d="M250.79,217.19c.69,4,4.29,4.59,6.78,4.59s6-.69,6-3.82c0-6.53-18.26-2.32-18.26-13.79,0-6.31,5.93-9.27,11.47-9.27,6.4,0,12.28,2.79,12.28,9.87l-6.53-.94c-.81-3.56-3.95-3.69-6.05-3.69s-4.64.9-4.64,3.47c0,2.28,1.46,2.79,9.15,4.64,2.28.56,9.1,2,9.1,8.94,0,5.62-4.38,9.83-12.75,9.83-6.88,0-13.06-3.35-13.06-10.91Z"/><path class="cls-1" d="M302.36,226.29h-9.27l-8-8.59-4,5.54v3h-6.87V195.58h6.87V213l12-17.4h8.37L289.91,213Z"/><path class="cls-2" d="M170.94,29.05A44.82,44.82,0,0,0,129,0h0A44.82,44.82,0,0,0,87,29.05L28.74,184.16h58.1l12.73-30.4h57.09l13,30.4h59.59Zm-42.38,88.16c-18.77,0-34-21.41-34-47.82s15.22-47.81,34-47.81,34,21.41,34,47.81S147.34,117.21,128.56,117.21Z"/><ellipse cx="128.7" cy="69.13" rx="42.46" ry="58.92"/><circle class="cls-1" cx="113.29" cy="63.34" r="4.2"/><circle class="cls-1" cx="145.05" cy="63.34" r="4.2"/><path class="cls-1" d="M122.16,89h13.69s-.95,5.86-6.87,5.86S122.16,89,122.16,89Z"/></g></g></svg>