<svg xmlns="http://www.w3.org/2000/svg" viewBox="0 0 24.19 25.01"><defs><style>.cls-1{fill:aqua;}</style></defs><g id="Layer_2" data-name="Layer 2"><g id="Layer_1-2" data-name="Layer 1"><path class="cls-1" d="M23.44,8.4A5.62,5.62,0,0,0,21.31.69a5.7,5.7,0,0,0-7.75,2.37,5.6,5.6,0,0,0-.15,4.73,1.17,1.17,0,0,1-.49,1.51l-1,.55a1.17,1.17,0,0,1-1.55-.37,5.57,5.57,0,0,0-4.8-2.59A5.69,5.69,0,0,0,0,12.42a5.62,5.62,0,0,0,10.47,2.92,1.19,1.19,0,0,1,1.68-.41l.31.21a1.16,1.16,0,0,1,.35,1.55A5.62,5.62,0,0,0,13,22.51a5.7,5.7,0,0,0,7.85,1.55,5.61,5.61,0,0,0-2.54-10.22A1.23,1.23,0,0,1,17.2,12.6v-.24a1.2,1.2,0,0,1,1.21-1.16A5.6,5.6,0,0,0,23.44,8.4Z"/></g></g></svg>