<svg xmlns="http://www.w3.org/2000/svg" viewBox="0 0 20 26.96"><defs><style>.cls-1{fill:aqua;}</style></defs><g id="Layer_2" data-name="Layer 2"><g id="Layer_1-2" data-name="Layer 1"><path class="cls-1" d="M12.65.05A6.52,6.52,0,0,0,8.24,10.4a2.2,2.2,0,0,1,.21,2.3h0a2.2,2.2,0,0,1-2,1.21,6.4,6.4,0,0,0-2.38.5A6.5,6.5,0,0,0,7.35,26.9a6.51,6.51,0,0,0,4.41-10.35,2.18,2.18,0,0,1-.21-2.29h0a2.23,2.23,0,0,1,2-1.22,6.18,6.18,0,0,0,2.38-.49A6.51,6.51,0,0,0,12.65.05Z"/><circle cx="13.48" cy="6.52" r="5.43"/><circle cx="6.52" cy="20.43" r="5.48"/></g></g></svg>