<svg xmlns="http://www.w3.org/2000/svg" viewBox="0 0 136.58 19.14"><defs><style>.cls-1{fill:#fff;}</style></defs><g id="Layer_2" data-name="Layer 2"><g id="Layer_1-2" data-name="Layer 1"><path class="cls-1" d="M60.07,6.36a4.47,4.47,0,0,1,5-1.83,3.77,3.77,0,0,1,2.22,1.6c.45.66.44.67.9,0a4.75,4.75,0,0,1,6.09-1.24A4,4,0,0,1,76.2,8.26c.14,1.73.12,3.47.14,5.2,0,1.53,0,3.06,0,4.59,0,.54-.2.74-.73.72-.69,0-1.37,0-2.06,0s-.76-.23-.75-.78q0-3.66,0-7.33c0-.54,0-1.09-.08-1.64-.14-1.7-1.77-2.19-3.18-1.36a2.86,2.86,0,0,0-1.26,2,7.61,7.61,0,0,0-.13,1.43c0,2.24,0,4.47,0,6.71,0,.93,0,.93-1,.93H65.62c-1,0-1,0-1-1,0-2.56,0-5.11,0-7.67a5.41,5.41,0,0,0-.15-1.56,1.68,1.68,0,0,0-1.72-1.31,2.4,2.4,0,0,0-2.29,1.47A7.22,7.22,0,0,0,60,11c-.05,2.29,0,4.57,0,6.85,0,.94,0,.94-1,1-.62,0-1.24,0-1.85,0s-.74-.21-.74-.76c0-4.16,0-8.31,0-12.47a.65.65,0,0,0,0-.14c0-.54.16-.8.75-.76s1.28,0,1.92,0,.94.2.89.86A6.68,6.68,0,0,0,60.07,6.36Z"/><path class="cls-1" d="M9.52,17.45a14.09,14.09,0,0,1-2.24,1.32,4.94,4.94,0,0,1-6.16-2.34A10.22,10.22,0,0,1,.21,9.58,7.21,7.21,0,0,1,1.67,6.16a5,5,0,0,1,7.51-.27,1.12,1.12,0,0,1,.13.24l.26-.06c0-1,0-1.95,0-2.92s0-2,0-3.06h3.5c0,.25,0,.51,0,.78v17c0,.9,0,.9-.92.9-.58,0-1.15,0-1.72,0s-1-.12-.9-.83A1.54,1.54,0,0,0,9.52,17.45Zm.22-5.66-.11,0c0-.69,0-1.37-.11-2A2.82,2.82,0,0,0,8.3,7.6,2.82,2.82,0,0,0,3.82,9.25a19,19,0,0,0,0,4.83A2.25,2.25,0,0,0,6,16.24c1.78.17,2.74-.24,3.27-1.67A15.86,15.86,0,0,0,9.74,11.79Z"/><path class="cls-1" d="M48.85,16.91a1.13,1.13,0,0,1-.13.32,4.61,4.61,0,0,1-5.45,1.55,4.26,4.26,0,0,1-2.81-4.45A4.3,4.3,0,0,1,44,10.58c1.33-.18,2.67-.33,4-.51.89-.12,1-.28.85-1.17-.2-1.19-.68-1.67-1.73-1.77a2.26,2.26,0,0,0-2.64,1.44,1,1,0,0,1-.69.48,17.57,17.57,0,0,1-1.92,0c-.91,0-1.11-.31-.82-1.2a4.29,4.29,0,0,1,2.25-2.72,7.36,7.36,0,0,1,7.15.12A3.59,3.59,0,0,1,52.27,8.4c.08,2.23.07,4.47,0,6.71,0,.66.22.88.87.87,1.63,0,1.56-.2,1.55,1.56,0,1.28.15,1.22-1.23,1.22-1.17,0-2.33,0-3.5,0-.59,0-.85-.2-.82-.8a6.09,6.09,0,0,0-.08-.95Zm-1.46-4.12L45.28,13c-1,.11-1.16.28-1.17,1.29,0,.23,0,.46,0,.68a1.13,1.13,0,0,0,1,1.18c1.8.41,3.4-.28,3.71-2.36C48.93,12.73,48.92,12.72,47.39,12.79Z"/><path class="cls-1" d="M136.52,18.75a12.15,12.15,0,0,1-1.71,0c-.16,0-.37-.41-.38-.63,0-1.37,0-2.74,0-4.11s0-2.69,0-4a9.33,9.33,0,0,0-.24-1.75,2.1,2.1,0,0,0-2-1.76,2.9,2.9,0,0,0-2.63,1.4,5.89,5.89,0,0,0-.74,3.15c0,2.31,0,4.62,0,6.92,0,.66-.22.88-.87.87-2-.05-1.69.22-1.7-1.65,0-2.22,0-4.44,0-6.65a9.36,9.36,0,0,0-.53-2.92,2.19,2.19,0,0,0-2.94-1,3.45,3.45,0,0,0-2,3c-.11,2.72-.1,5.43-.14,8.15,0,1,0,1-1,1-1.78,0-1.57.11-1.57-1.53,0-3.84,0-7.67,0-11.51,0-1,.06-1.07,1.09-1.08h.41c1,0,1,0,1.1,1,0,.19.06.39.09.59a14.58,14.58,0,0,1,1.79-1.4,4.17,4.17,0,0,1,5.66,1.65c.2.46.45.44.65,0a4.54,4.54,0,0,1,4.75-2.06,4,4,0,0,1,2.83,2,1.74,1.74,0,0,1,.22.69q0,5.6,0,11.17C136.57,18.45,136.54,18.56,136.52,18.75Z"/><path class="cls-1" d="M34.21,12.83H30.44c-.38,0-.66.05-.7.53a2.63,2.63,0,0,0,1.71,2.77,2.73,2.73,0,0,0,3.31-.94s.07-.07.08-.11c.11-1.09.9-1,1.66-1a12.71,12.71,0,0,0,1.38,0c.63,0,.76.26.62.79a5,5,0,0,1-2.7,3.45,6.73,6.73,0,0,1-6.8-.25,5.89,5.89,0,0,1-2.52-3.61,10,10,0,0,1,0-5.41A6,6,0,0,1,33,4.38c3.58.35,5.64,2.81,5.78,6.71.06,1.9.22,1.73-1.63,1.74Zm-1.81-2.7h2.13c.45,0,.66-.22.59-.7a2.51,2.51,0,0,0-2.66-2.31,2.57,2.57,0,0,0-2.68,2.3c-.07.47.09.71.57.71Z"/><path class="cls-1" d="M111.6,16.52a15.89,15.89,0,0,1-1.19,1.41c-1.93,1.79-6.43,1.86-7.61-2a4,4,0,0,1,3-5.05c1.61-.29,3.25-.48,4.88-.64.63-.06.88-.28.78-.88a11.47,11.47,0,0,0-.33-1.67,1.83,1.83,0,0,0-1.41-1.19,3.58,3.58,0,0,0-3,.38,2.48,2.48,0,0,0-.8,1.27c-.16.5-.36.75-.9.72s-.82,0-1.23,0-.66-.22-.55-.7a4.4,4.4,0,0,1,2.2-3,6.35,6.35,0,0,1,6-.28,3.5,3.5,0,0,1,2.25,2.73,30,30,0,0,1,.26,3.54c0,1.55,0,3.11,0,4.66,0,.54.18.77.71.7h.07c1.32,0,1.65.44,1.3,1.76a.7.7,0,0,1-.53.39c-1.07,0-2.15,0-3.23,0-.44,0-.51-.28-.53-.64S111.65,17.18,111.6,16.52Zm-3.79.47a2.76,2.76,0,0,0,2.8-1.5,12.9,12.9,0,0,0,.79-2.65c.12-.46-.21-.59-.62-.55-1.25.12-2.51.2-3.76.35-1.53.18-1.67.37-1.67,1.94a5.05,5.05,0,0,0,.08.88,1.66,1.66,0,0,0,1.63,1.48Z"/><path class="cls-1" d="M96,12.42c-1.31,0-2.61,0-3.92,0-.58,0-.71.21-.74.76a3.19,3.19,0,0,0,2,3.56c1.57.61,4,.25,4.56-1.85a.8.8,0,0,1,1-.7c.27,0,.54,0,.82,0,.79,0,1,.25.76,1a4.79,4.79,0,0,1-2.32,2.91,7.13,7.13,0,0,1-4.2,1,5.65,5.65,0,0,1-4.76-3.8,10.37,10.37,0,0,1,.33-7.74A5.71,5.71,0,0,1,95.4,4.36a5.64,5.64,0,0,1,5.25,5.17c.09.68.12,1.37.19,2.05s-.19.86-.82.85C98.69,12.4,97.37,12.42,96,12.42Zm-1.35-2.07c.92,0,1.83,0,2.75,0,.55,0,.71-.23.68-.75a3.36,3.36,0,0,0-6.72.08c0,.46.14.67.62.67C92.91,10.34,93.8,10.35,94.69,10.35Z"/><path class="cls-1" d="M83.8,18.76c-.71,0-1.42,0-2.13,0s-.8-.2-.8-.8c0-3.36,0-6.71,0-10.07,0-1.06,0-1.06-1.07-1.07-.18,0-.36,0-.55,0-.49,0-.73-.18-.69-.68V6c0-1.35,0-1.35,1.34-1.36,1,0,1,0,1-1s0-2,0-3c0-.44.15-.59.6-.61,1.93-.07,1.93-.08,1.93,1.86,0,.69,0,1.37,0,2.06,0,.5.18.71.68.7s1.19,0,1.79,0,.83.24.8.81v.14c0,1.22,0,1.23-1.19,1.23H84a.56.56,0,0,0-.63.64c0,2.85,0,5.71,0,8.56,0,.44.24.55.61.55.66,0,1.32,0,2,0,.46,0,.64.18.67.65.08,1.52.09,1.53-1.44,1.53Z"/><path class="cls-1" d="M16.94,11.69c0-2.08,0-4.15,0-6.23,0-.61.2-.84.83-.83q3.12,0,6.24,0c.6,0,.83.2.82.79,0,2.46.29,2-1.95,2H21.44c-1,0-1,0-1,.93v9.44c0,.91,0,.93-.91.94-.64,0-1.28,0-1.92,0s-.72-.17-.72-.71C17,15.93,16.94,13.81,16.94,11.69Z"/></g></g></svg>
