<svg xmlns="http://www.w3.org/2000/svg" viewBox="0 0 20.07 19.07"><defs><style>.cls-1{fill:#000;}</style></defs><g id="Layer_2" data-name="Layer 2"><g id="Layer_1-2" data-name="Layer 1"><path class="cls-1" d="M5,4.87A2.9,2.9,0,1,0,.93,5,2.9,2.9,0,0,0,5,4.87Z"/><path class="cls-1" d="M15,14.2a2.9,2.9,0,1,0,4.1-.16A2.91,2.91,0,0,0,15,14.2Z"/><path class="cls-1" d="M.77,14.2A2.9,2.9,0,1,0,4.87,14,2.9,2.9,0,0,0,.77,14.2Z"/><path class="cls-1" d="M15,.93a2.9,2.9,0,1,0,4.1-.16A2.91,2.91,0,0,0,15,.93Z"/></g></g></svg>
